/* XPM */
static char *_381e8d8df39497ba2499c567a0ab9e2AxhtBCxItnHh18SL[] = {
/* columns rows colors chars-per-pixel */
"32 32 9 1 ",
"  c #422632",
". c #265C42",
"X c #A32732",
"o c #D77643",
"O c #3E8948",
"+ c #68B772",
"@ c #63C64F",
"# c #73C47B",
"$ c #FDAE35",
/* pixels */
"################################",
"################################",
"################################",
"##############$$$###############",
"#############$$$$$##############",
"#############o$$$o##############",
"#############.oooO+##++#########",
"#############.OO@O+#++##########",
"#############.OO@O+#+###########",
"#############.OO@O##############",
"#############.OO@O##############",
"#############.OO@O##############",
"#########+###.OO@O##############",
"#########++#OOOOOOO#############",
"######++##+.O.....OO############",
"#######++#+........O############",
"###########......@.O############",
"########### .....@. ###++#######",
"###########      X  ++#+##++####",
"###########      X  #+#+#++#####",
"###########      X  ############",
"###########      X  ############",
"###########.     X O############",
"###########......@.O############",
"###########......@.O############",
"###########......@.O#++##++#####",
"###########.O.....OO##+#++######",
"############OOOOOOO++#+#+#######",
"#############.....##############",
"################################",
"################################",
"################################"
};
