/* XPM */
static char *b7768d4e7ae64679b286d89c6aed7398WhtI5ofUXSiItmBU[] = {
/* columns rows colors chars-per-pixel */
"32 32 5 1 ",
"  c #733D3B",
". c #B9704F",
"X c #68B772",
"o c #73C47B",
"O c #EBD4AB",
/* pixels */
"oooooooooooooooooooooooooooooooo",
"oooooooooooooooooooooooooooooooo",
"oooooooooooooooooooooooooooooooo",
"oooooooooooooo...ooooooooooooooo",
"oooooooooooo..OOO..ooooooooooooo",
"oooooooooo..OOOOOOO..ooooooooooo",
"ooooooooo.OOOOOOOOOOO.Xooooooooo",
"oooooooo.OOOOOOOOOOOOO.ooooooooo",
"oooooooo.OOOOOOOOOOOOO.ooooooooo",
"oooooooo.OOOOOOOOOOOOO.ooooooooo",
"ooooooo.OO.OOOOOOOOO.OO.oooooooo",
"ooooooo.OO.OOOOOOOOO.OO.oooooooo",
"ooooooo.O.OOOOOOOOOOO.O.oooooooo",
"ooooooo.OOO   OOO   OOO.oooooooo",
"ooooooX.OO    OOO    OO.oooooooo",
"ooooooo.OO    O O    OO.oooooooo",
"oooooooo.O   OO OO   O.ooooooooo",
"ooooooo.OOOOOO   OOOOOO.Xooooooo",
"oooooooo.OOOOO O OOOOO.XooXXoooo",
"ooooooooo...OOOOOOO...oXoXXooooo",
"ooooooooo.O.OOOOOOO.O.oooooooooo",
"ooooooooo.O.OOOOOOO.O.oooooooooo",
"ooooooooo.OO..OOO..OO.oooooooooo",
"ooooooooo.O.OO...OO.O.oooooooooo",
"oooooooooo.OO.OOO.OO.ooooooooooo",
"ooooooooooo.OOOOOOO.oXXooXXooooo",
"ooooooooooo.OOOOOOO.ooXoXXoooooo",
"oooooooooooo.OOOOO.XXoXoXooooooo",
"ooooooooooooo.....oooooooooooooo",
"oooooooooooooooooooooooooooooooo",
"oooooooooooooooooooooooooooooooo",
"oooooooooooooooooooooooooooooooo"
};
