/* XPM */
static char *_e194653c3cf4b7480ef70d26712a3d7KerLpVy92Ry4g3nC[] = {
/* columns rows colors chars-per-pixel */
"32 32 5 1 ",
"  c #F7771C",
". c #68B772",
"X c #73C47B",
"o c #FEAF31",
"O c #FEE861",
/* pixels */
"XXXXXXXXXXXXXXXXXXXXXXXXXXXXXXXX",
"XXXXXXXXXXXXXXXXXXXXXXXXXXXXXXXX",
"XXXXXXXXXXXXXXXXXXXXXXXXXXXXXXXX",
"XXXXXXXXXXXXXXXXXXXXXXXXXXXXXXXX",
"XXXXXXXXXXXXXXXXXXXXXXXXXXXXXXXX",
"XXXXXXXXXXXXXXXXX.XXXXXXXXXXXXXX",
"XXXXXXXXXXXXXXXXX..XX..XXXXXXXXX",
"XXXXXXXXXXXXXX..XX.X..XXXXXXXXXX",
"XXXXXXXXXXXXXXX..X.X.XXXXXXXXXXX",
"XXXXXXX       oooooooooooooXXXXX",
"XXXXX       oooooo oooo oooXXXXX",
"XXXX       ooooooooooooo ooXXXXX",
"XXXX       ooo  oooooooOoooXXXXX",
"XXXX       oooo oooo  oooooXXXXX",
"XXXX       oooOoooooO ooo oXXXXX",
"XXXX       o ooooooooooooooXXXXX",
"XXXX       ooooo  ooooo oooXXXXX",
"XXXX       oooooo oooooOoooXXXXX",
"XXXX       o  ooO oo oooooo.XXXX",
"XXXX       oo oooooooo ooooXXXXX",
"XXXX       oOooooooooO ooOoXXXXX",
"XXXX       ooooo ooooooooooXXXXX",
"XXXX       ooooooooooooooooXXXXX",
"XXXXXXXXXXXXXXXXXXXXXXXXXXXXXXXX",
"XXXXXXXXXXXXXXXXXXXXXXXXXXXXXXXX",
"XXXXXXXXXXXXXXXXXXXXX..XX..XXXXX",
"XXXXXXXXXXXXXXXXXX..XX.X..XXXXXX",
"XXXXXXXXXXXXXXXXXXX..X.X.XXXXXXX",
"XXXXXXXXXXXXXXXXXXXXXXXXXXXXXXXX",
"XXXXXXXXXXXXXXXXXXXXXXXXXXXXXXXX",
"XXXXXXXXXXXXXXXXXXXXXXXXXXXXXXXX",
"XXXXXXXXXXXXXXXXXXXXXXXXXXXXXXXX"
};
