/* XPM */
static char *eb523cfe78a54df4bb907a1798026d40XQyUE33cdaF8E6mB[] = {
/* columns rows colors chars-per-pixel */
"32 32 10 1 ",
"  c None",
". c #081905",
"X c #1F321B",
"o c #2B2B35",
"O c #33502E",
"+ c #476A3F",
"@ c #567C4E",
"# c #0066FF",
"$ c #02FDEF",
"% c white",
/* pixels */
"                                ",
"                                ",
"                                ",
"                                ",
"                                ",
"                                ",
"                                ",
"                                ",
"              XXXX              ",
"             .X$$$.             ",
"        #   .OXo##o.   #        ",
"        #  .@+@o$$oO.  #        ",
"        ##XO@@@o##o@OX##        ",
"       #XX.@@@@o%%o@@.XX#       ",
"      ##X$.+@@@o$$o@+.$X##      ",
"       #X oXO@@o%%oOXo X#       ",
"        #  oXO@o##oXo  #        ",
"       ##    X.$$$X    ##       ",
"      ##X#    XXXX    #X##      ",
"       #X$$   %##%   $$X#       ",
"        X$$    $$    $$X        ",
"         $$%   %%   %$$         ",
"          $%        %$          ",
"           %        %           ",
"                                ",
"                                ",
"                                ",
"                                ",
"                                ",
"                                ",
"                                ",
"                                "
};
