/* XPM */
static char *_704d0a7f1f74152f664939917bfd3962YbliEyXFAPuxium[] = {
/* columns rows colors chars-per-pixel */
"32 32 2 1 ",
"  c #68B671",
". c #72C37A",
/* pixels */
"................................",
"................................",
"................................",
"................................",
"................................",
"................. ..............",
".................  ..  .........",
"..............  .. .  ..........",
"...............  . . ...........",
"................................",
"................................",
"................................",
"......... ......................",
".........  ..  .................",
"......  .. .  ..................",
".......  . . ...................",
"................................",
".......................  .......",
"....................  . ..  ....",
"..................... . .  .....",
"................................",
"................................",
"................................",
"................................",
"................................",
".....................  ..  .....",
"..................  .. .  ......",
"...................  . . .......",
"................................",
"................................",
"................................",
"................................"
};
